<?xml version="1.0" encoding="utf-8" standalone="no"?>
<!DOCTYPE svg PUBLIC "-//W3C//DTD SVG 1.1//EN"
  "http://www.w3.org/Graphics/SVG/1.1/DTD/svg11.dtd">
<svg xmlns:xlink="http://www.w3.org/1999/xlink" width="1110.975009pt" height="967.620025pt" viewBox="0 0 1110.975009 967.620025" xmlns="http://www.w3.org/2000/svg" version="1.1">
 <metadata>
  <rdf:RDF xmlns:dc="http://purl.org/dc/elements/1.1/" xmlns:cc="http://creativecommons.org/ns#" xmlns:rdf="http://www.w3.org/1999/02/22-rdf-syntax-ns#">
   <cc:Work>
    <dc:type rdf:resource="http://purl.org/dc/dcmitype/StillImage"/>
    <dc:date>2024-06-13T14:01:59.392100</dc:date>
    <dc:format>image/svg+xml</dc:format>
    <dc:creator>
     <cc:Agent>
      <dc:title>Matplotlib v3.6.3, https://matplotlib.org/</dc:title>
     </cc:Agent>
    </dc:creator>
   </cc:Work>
  </rdf:RDF>
 </metadata>
 <defs>
  <style type="text/css">*{stroke-linejoin: round; stroke-linecap: butt}</style>
 </defs>
 <g id="figure_1">
  <g id="patch_1">
   <path d="M 0 967.620025 
L 1110.975009 967.620025 
L 1110.975009 0 
L 0 0 
z
" style="fill: #ffffff"/>
  </g>
  <g id="axes_1">
   <g id="line2d_1">
    <path d="M 74.716222 51.881637 
L 1099.139609 51.881637 
" clip-path="url(#p7445426236)" style="fill: none; stroke: #000000; stroke-width: 2; stroke-linecap: square"/>
   </g>
   <g id="line2d_2">
    <path d="M 74.716222 98.235636 
L 1099.139609 98.235636 
" clip-path="url(#p7445426236)" style="fill: none; stroke: #000000; stroke-width: 2; stroke-linecap: square"/>
   </g>
   <g id="line2d_3">
    <path d="M 74.716222 144.589636 
L 1099.139609 144.589636 
" clip-path="url(#p7445426236)" style="fill: none; stroke: #000000; stroke-width: 2; stroke-linecap: square"/>
   </g>
   <g id="line2d_4">
    <path d="M 74.716222 190.943635 
L 1099.139609 190.943635 
" clip-path="url(#p7445426236)" style="fill: none; stroke: #000000; stroke-width: 2; stroke-linecap: square"/>
   </g>
   <g id="line2d_5">
    <path d="M 74.716222 237.297635 
L 1099.139609 237.297635 
" clip-path="url(#p7445426236)" style="fill: none; stroke: #000000; stroke-width: 2; stroke-linecap: square"/>
   </g>
   <g id="line2d_6">
    <path d="M 74.716222 283.651634 
L 1099.139609 283.651634 
" clip-path="url(#p7445426236)" style="fill: none; stroke: #000000; stroke-width: 2; stroke-linecap: square"/>
   </g>
   <g id="line2d_7">
    <path d="M 74.716222 330.005633 
L 1099.139609 330.005633 
" clip-path="url(#p7445426236)" style="fill: none; stroke: #000000; stroke-width: 2; stroke-linecap: square"/>
   </g>
   <g id="line2d_8">
    <path d="M 74.716222 376.359633 
L 1099.139609 376.359633 
" clip-path="url(#p7445426236)" style="fill: none; stroke: #000000; stroke-width: 2; stroke-linecap: square"/>
   </g>
   <g id="line2d_9">
    <path d="M 74.716222 422.713632 
L 1099.139609 422.713632 
" clip-path="url(#p7445426236)" style="fill: none; stroke: #000000; stroke-width: 2; stroke-linecap: square"/>
   </g>
   <g id="line2d_10">
    <path d="M 74.716222 469.067631 
L 1099.139609 469.067631 
" clip-path="url(#p7445426236)" style="fill: none; stroke: #000000; stroke-width: 2; stroke-linecap: square"/>
   </g>
   <g id="line2d_11">
    <path d="M 74.716222 515.421631 
L 1099.139609 515.421631 
" clip-path="url(#p7445426236)" style="fill: none; stroke: #000000; stroke-width: 2; stroke-linecap: square"/>
   </g>
   <g id="line2d_12">
    <path d="M 74.716222 561.77563 
L 1099.139609 561.77563 
" clip-path="url(#p7445426236)" style="fill: none; stroke: #000000; stroke-width: 2; stroke-linecap: square"/>
   </g>
   <g id="line2d_13">
    <path d="M 74.716222 608.12963 
L 1099.139609 608.12963 
" clip-path="url(#p7445426236)" style="fill: none; stroke: #000000; stroke-width: 2; stroke-linecap: square"/>
   </g>
   <g id="line2d_14">
    <path d="M 74.716222 654.483629 
L 1099.139609 654.483629 
" clip-path="url(#p7445426236)" style="fill: none; stroke: #000000; stroke-width: 2; stroke-linecap: square"/>
   </g>
   <g id="line2d_15">
    <path d="M 74.716222 700.837628 
L 1099.139609 700.837628 
" clip-path="url(#p7445426236)" style="fill: none; stroke: #000000; stroke-width: 2; stroke-linecap: square"/>
   </g>
   <g id="line2d_16">
    <path d="M 74.716222 747.191628 
L 1099.139609 747.191628 
" clip-path="url(#p7445426236)" style="fill: none; stroke: #000000; stroke-width: 2; stroke-linecap: square"/>
   </g>
   <g id="line2d_17">
    <path d="M 74.716222 793.545627 
L 1099.139609 793.545627 
" clip-path="url(#p7445426236)" style="fill: none; stroke: #000000; stroke-width: 2; stroke-linecap: square"/>
   </g>
   <g id="line2d_18">
    <path d="M 74.716222 839.899627 
L 1099.139609 839.899627 
" clip-path="url(#p7445426236)" style="fill: none; stroke: #000000; stroke-width: 2; stroke-linecap: square"/>
   </g>
   <g id="line2d_19">
    <path d="M 74.716222 886.253626 
L 1099.139609 886.253626 
" clip-path="url(#p7445426236)" style="fill: none; stroke: #000000; stroke-width: 2; stroke-linecap: square"/>
   </g>
   <g id="line2d_20">
    <path d="M 74.716222 932.607625 
L 1099.139609 932.607625 
" clip-path="url(#p7445426236)" style="fill: none; stroke: #000000; stroke-width: 2; stroke-linecap: square"/>
   </g>
   <g id="text_1">
    <!-- Global Phase: $\pi$/2 -->
    <g transform="translate(7.2 14.798437) scale(0.1 -0.1)">
     <defs>
      <path id="DejaVuSans-47" d="M 3809 666 
L 3809 1919 
L 2778 1919 
L 2778 2438 
L 4434 2438 
L 4434 434 
Q 4069 175 3628 42 
Q 3188 -91 2688 -91 
Q 1594 -91 976 548 
Q 359 1188 359 2328 
Q 359 3472 976 4111 
Q 1594 4750 2688 4750 
Q 3144 4750 3555 4637 
Q 3966 4525 4313 4306 
L 4313 3634 
Q 3963 3931 3569 4081 
Q 3175 4231 2741 4231 
Q 1884 4231 1454 3753 
Q 1025 3275 1025 2328 
Q 1025 1384 1454 906 
Q 1884 428 2741 428 
Q 3075 428 3337 486 
Q 3600 544 3809 666 
z
" transform="scale(0.015625)"/>
      <path id="DejaVuSans-6c" d="M 603 4863 
L 1178 4863 
L 1178 0 
L 603 0 
L 603 4863 
z
" transform="scale(0.015625)"/>
      <path id="DejaVuSans-6f" d="M 1959 3097 
Q 1497 3097 1228 2736 
Q 959 2375 959 1747 
Q 959 1119 1226 758 
Q 1494 397 1959 397 
Q 2419 397 2687 759 
Q 2956 1122 2956 1747 
Q 2956 2369 2687 2733 
Q 2419 3097 1959 3097 
z
M 1959 3584 
Q 2709 3584 3137 3096 
Q 3566 2609 3566 1747 
Q 3566 888 3137 398 
Q 2709 -91 1959 -91 
Q 1206 -91 779 398 
Q 353 888 353 1747 
Q 353 2609 779 3096 
Q 1206 3584 1959 3584 
z
" transform="scale(0.015625)"/>
      <path id="DejaVuSans-62" d="M 3116 1747 
Q 3116 2381 2855 2742 
Q 2594 3103 2138 3103 
Q 1681 3103 1420 2742 
Q 1159 2381 1159 1747 
Q 1159 1113 1420 752 
Q 1681 391 2138 391 
Q 2594 391 2855 752 
Q 3116 1113 3116 1747 
z
M 1159 2969 
Q 1341 3281 1617 3432 
Q 1894 3584 2278 3584 
Q 2916 3584 3314 3078 
Q 3713 2572 3713 1747 
Q 3713 922 3314 415 
Q 2916 -91 2278 -91 
Q 1894 -91 1617 61 
Q 1341 213 1159 525 
L 1159 0 
L 581 0 
L 581 4863 
L 1159 4863 
L 1159 2969 
z
" transform="scale(0.015625)"/>
      <path id="DejaVuSans-61" d="M 2194 1759 
Q 1497 1759 1228 1600 
Q 959 1441 959 1056 
Q 959 750 1161 570 
Q 1363 391 1709 391 
Q 2188 391 2477 730 
Q 2766 1069 2766 1631 
L 2766 1759 
L 2194 1759 
z
M 3341 1997 
L 3341 0 
L 2766 0 
L 2766 531 
Q 2569 213 2275 61 
Q 1981 -91 1556 -91 
Q 1019 -91 701 211 
Q 384 513 384 1019 
Q 384 1609 779 1909 
Q 1175 2209 1959 2209 
L 2766 2209 
L 2766 2266 
Q 2766 2663 2505 2880 
Q 2244 3097 1772 3097 
Q 1472 3097 1187 3025 
Q 903 2953 641 2809 
L 641 3341 
Q 956 3463 1253 3523 
Q 1550 3584 1831 3584 
Q 2591 3584 2966 3190 
Q 3341 2797 3341 1997 
z
" transform="scale(0.015625)"/>
      <path id="DejaVuSans-20" transform="scale(0.015625)"/>
      <path id="DejaVuSans-50" d="M 1259 4147 
L 1259 2394 
L 2053 2394 
Q 2494 2394 2734 2622 
Q 2975 2850 2975 3272 
Q 2975 3691 2734 3919 
Q 2494 4147 2053 4147 
L 1259 4147 
z
M 628 4666 
L 2053 4666 
Q 2838 4666 3239 4311 
Q 3641 3956 3641 3272 
Q 3641 2581 3239 2228 
Q 2838 1875 2053 1875 
L 1259 1875 
L 1259 0 
L 628 0 
L 628 4666 
z
" transform="scale(0.015625)"/>
      <path id="DejaVuSans-68" d="M 3513 2113 
L 3513 0 
L 2938 0 
L 2938 2094 
Q 2938 2591 2744 2837 
Q 2550 3084 2163 3084 
Q 1697 3084 1428 2787 
Q 1159 2491 1159 1978 
L 1159 0 
L 581 0 
L 581 4863 
L 1159 4863 
L 1159 2956 
Q 1366 3272 1645 3428 
Q 1925 3584 2291 3584 
Q 2894 3584 3203 3211 
Q 3513 2838 3513 2113 
z
" transform="scale(0.015625)"/>
      <path id="DejaVuSans-73" d="M 2834 3397 
L 2834 2853 
Q 2591 2978 2328 3040 
Q 2066 3103 1784 3103 
Q 1356 3103 1142 2972 
Q 928 2841 928 2578 
Q 928 2378 1081 2264 
Q 1234 2150 1697 2047 
L 1894 2003 
Q 2506 1872 2764 1633 
Q 3022 1394 3022 966 
Q 3022 478 2636 193 
Q 2250 -91 1575 -91 
Q 1294 -91 989 -36 
Q 684 19 347 128 
L 347 722 
Q 666 556 975 473 
Q 1284 391 1588 391 
Q 1994 391 2212 530 
Q 2431 669 2431 922 
Q 2431 1156 2273 1281 
Q 2116 1406 1581 1522 
L 1381 1569 
Q 847 1681 609 1914 
Q 372 2147 372 2553 
Q 372 3047 722 3315 
Q 1072 3584 1716 3584 
Q 2034 3584 2315 3537 
Q 2597 3491 2834 3397 
z
" transform="scale(0.015625)"/>
      <path id="DejaVuSans-65" d="M 3597 1894 
L 3597 1613 
L 953 1613 
Q 991 1019 1311 708 
Q 1631 397 2203 397 
Q 2534 397 2845 478 
Q 3156 559 3463 722 
L 3463 178 
Q 3153 47 2828 -22 
Q 2503 -91 2169 -91 
Q 1331 -91 842 396 
Q 353 884 353 1716 
Q 353 2575 817 3079 
Q 1281 3584 2069 3584 
Q 2775 3584 3186 3129 
Q 3597 2675 3597 1894 
z
M 3022 2063 
Q 3016 2534 2758 2815 
Q 2500 3097 2075 3097 
Q 1594 3097 1305 2825 
Q 1016 2553 972 2059 
L 3022 2063 
z
" transform="scale(0.015625)"/>
      <path id="DejaVuSans-3a" d="M 750 794 
L 1409 794 
L 1409 0 
L 750 0 
L 750 794 
z
M 750 3309 
L 1409 3309 
L 1409 2516 
L 750 2516 
L 750 3309 
z
" transform="scale(0.015625)"/>
      <path id="DejaVuSans-Oblique-3c0" d="M 584 3500 
L 3938 3500 
L 3825 2925 
L 3384 2925 
L 2966 775 
Q 2922 550 2981 450 
Q 3038 353 3209 353 
Q 3256 353 3325 363 
Q 3397 369 3419 372 
L 3338 -44 
Q 3222 -84 3103 -103 
Q 2981 -122 2866 -122 
Q 2491 -122 2388 81 
Q 2284 288 2391 838 
L 2797 2925 
L 1506 2925 
L 938 0 
L 350 0 
L 919 2925 
L 472 2925 
L 584 3500 
z
" transform="scale(0.015625)"/>
      <path id="DejaVuSans-2f" d="M 1625 4666 
L 2156 4666 
L 531 -594 
L 0 -594 
L 1625 4666 
z
" transform="scale(0.015625)"/>
      <path id="DejaVuSans-32" d="M 1228 531 
L 3431 531 
L 3431 0 
L 469 0 
L 469 531 
Q 828 903 1448 1529 
Q 2069 2156 2228 2338 
Q 2531 2678 2651 2914 
Q 2772 3150 2772 3378 
Q 2772 3750 2511 3984 
Q 2250 4219 1831 4219 
Q 1534 4219 1204 4116 
Q 875 4013 500 3803 
L 500 4441 
Q 881 4594 1212 4672 
Q 1544 4750 1819 4750 
Q 2544 4750 2975 4387 
Q 3406 4025 3406 3419 
Q 3406 3131 3298 2873 
Q 3191 2616 2906 2266 
Q 2828 2175 2409 1742 
Q 1991 1309 1228 531 
z
" transform="scale(0.015625)"/>
     </defs>
     <use xlink:href="#DejaVuSans-47" transform="translate(0 0.015625)"/>
     <use xlink:href="#DejaVuSans-6c" transform="translate(77.490234 0.015625)"/>
     <use xlink:href="#DejaVuSans-6f" transform="translate(105.273438 0.015625)"/>
     <use xlink:href="#DejaVuSans-62" transform="translate(166.455078 0.015625)"/>
     <use xlink:href="#DejaVuSans-61" transform="translate(229.931641 0.015625)"/>
     <use xlink:href="#DejaVuSans-6c" transform="translate(291.210938 0.015625)"/>
     <use xlink:href="#DejaVuSans-20" transform="translate(318.994141 0.015625)"/>
     <use xlink:href="#DejaVuSans-50" transform="translate(350.78125 0.015625)"/>
     <use xlink:href="#DejaVuSans-68" transform="translate(411.083984 0.015625)"/>
     <use xlink:href="#DejaVuSans-61" transform="translate(474.462891 0.015625)"/>
     <use xlink:href="#DejaVuSans-73" transform="translate(535.742188 0.015625)"/>
     <use xlink:href="#DejaVuSans-65" transform="translate(587.841797 0.015625)"/>
     <use xlink:href="#DejaVuSans-3a" transform="translate(649.365234 0.015625)"/>
     <use xlink:href="#DejaVuSans-20" transform="translate(683.056641 0.015625)"/>
     <use xlink:href="#DejaVuSans-Oblique-3c0" transform="translate(714.84375 0.015625)"/>
     <use xlink:href="#DejaVuSans-2f" transform="translate(775.048828 0.015625)"/>
     <use xlink:href="#DejaVuSans-32" transform="translate(805.115234 0.015625)"/>
    </g>
   </g>
   <g id="patch_2">
    <path d="M 70.080823 28.704637 
L -1088.769162 28.704637 
L -1088.769162 1002.138624 
L 70.080823 1002.138624 
z
" clip-path="url(#p7445426236)" style="fill: #ffffff; stroke: #ffffff; stroke-width: 1.5; stroke-linejoin: miter"/>
   </g>
   <g id="line2d_21">
    <path d="M 146.101382 469.067631 
L 146.101382 422.713632 
" clip-path="url(#p7445426236)" style="fill: none; stroke: #000000; stroke-width: 2; stroke-linecap: square"/>
   </g>
   <g id="line2d_22">
    <path d="M 146.101382 839.899627 
L 146.101382 654.483629 
" clip-path="url(#p7445426236)" style="fill: none; stroke: #000000; stroke-width: 2; stroke-linecap: square"/>
   </g>
   <g id="line2d_23">
    <path d="M 238.80938 469.067631 
L 238.80938 422.713632 
" clip-path="url(#p7445426236)" style="fill: none; stroke: #000000; stroke-width: 2; stroke-linecap: square"/>
   </g>
   <g id="line2d_24">
    <path d="M 238.80938 839.899627 
L 238.80938 654.483629 
" clip-path="url(#p7445426236)" style="fill: none; stroke: #000000; stroke-width: 2; stroke-linecap: square"/>
   </g>
   <g id="line2d_25">
    <path d="M 331.517379 700.837628 
L 331.517379 654.483629 
" clip-path="url(#p7445426236)" style="fill: none; stroke: #000000; stroke-width: 2; stroke-linecap: square"/>
   </g>
   <g id="line2d_26">
    <path d="M 424.225378 700.837628 
L 424.225378 654.483629 
" clip-path="url(#p7445426236)" style="fill: none; stroke: #000000; stroke-width: 2; stroke-linecap: square"/>
   </g>
   <g id="line2d_27">
    <path d="M 516.933377 700.837628 
L 516.933377 654.483629 
" clip-path="url(#p7445426236)" style="fill: none; stroke: #000000; stroke-width: 2; stroke-linecap: square"/>
   </g>
   <g id="line2d_28">
    <path d="M 609.641375 700.837628 
L 609.641375 469.067631 
" clip-path="url(#p7445426236)" style="fill: none; stroke: #000000; stroke-width: 2; stroke-linecap: square"/>
   </g>
   <g id="line2d_29">
    <path d="M 655.995375 839.899627 
L 655.995375 654.483629 
" clip-path="url(#p7445426236)" style="fill: none; stroke: #000000; stroke-width: 2; stroke-linecap: square"/>
   </g>
   <g id="line2d_30">
    <path d="M 795.057373 700.837628 
L 795.057373 469.067631 
" clip-path="url(#p7445426236)" style="fill: none; stroke: #000000; stroke-width: 2; stroke-linecap: square"/>
   </g>
   <g id="line2d_31">
    <path d="M 841.411372 839.899627 
L 841.411372 654.483629 
" clip-path="url(#p7445426236)" style="fill: none; stroke: #000000; stroke-width: 2; stroke-linecap: square"/>
   </g>
   <g id="line2d_32">
    <path d="M 887.765372 654.483629 
L 887.765372 422.713632 
" clip-path="url(#p7445426236)" style="fill: none; stroke: #000000; stroke-width: 2; stroke-linecap: square"/>
   </g>
   <g id="line2d_33">
    <path d="M 1026.82737 654.483629 
L 1026.82737 422.713632 
" clip-path="url(#p7445426236)" style="fill: none; stroke: #000000; stroke-width: 2; stroke-linecap: square"/>
   </g>
   <g id="line2d_34">
    <path d="M 146.101382 469.067631 
L 146.101382 422.713632 
" clip-path="url(#p7445426236)" style="fill: none; stroke: #000000; stroke-width: 2; stroke-linecap: square"/>
   </g>
   <g id="line2d_35">
    <path d="M 146.101382 839.899627 
L 146.101382 654.483629 
" clip-path="url(#p7445426236)" style="fill: none; stroke: #000000; stroke-width: 2; stroke-linecap: square"/>
   </g>
   <g id="line2d_36">
    <path d="M 238.80938 469.067631 
L 238.80938 422.713632 
" clip-path="url(#p7445426236)" style="fill: none; stroke: #000000; stroke-width: 2; stroke-linecap: square"/>
   </g>
   <g id="line2d_37">
    <path d="M 238.80938 839.899627 
L 238.80938 654.483629 
" clip-path="url(#p7445426236)" style="fill: none; stroke: #000000; stroke-width: 2; stroke-linecap: square"/>
   </g>
   <g id="line2d_38">
    <path d="M 331.517379 700.837628 
L 331.517379 654.483629 
" clip-path="url(#p7445426236)" style="fill: none; stroke: #000000; stroke-width: 2; stroke-linecap: square"/>
   </g>
   <g id="line2d_39">
    <path d="M 424.225378 700.837628 
L 424.225378 654.483629 
" clip-path="url(#p7445426236)" style="fill: none; stroke: #000000; stroke-width: 2; stroke-linecap: square"/>
   </g>
   <g id="line2d_40">
    <path d="M 516.933377 700.837628 
L 516.933377 654.483629 
" clip-path="url(#p7445426236)" style="fill: none; stroke: #000000; stroke-width: 2; stroke-linecap: square"/>
   </g>
   <g id="line2d_41">
    <path d="M 609.641375 700.837628 
L 609.641375 469.067631 
" clip-path="url(#p7445426236)" style="fill: none; stroke: #000000; stroke-width: 2; stroke-linecap: square"/>
   </g>
   <g id="line2d_42">
    <path d="M 655.995375 839.899627 
L 655.995375 654.483629 
" clip-path="url(#p7445426236)" style="fill: none; stroke: #000000; stroke-width: 2; stroke-linecap: square"/>
   </g>
   <g id="line2d_43">
    <path d="M 795.057373 700.837628 
L 795.057373 469.067631 
" clip-path="url(#p7445426236)" style="fill: none; stroke: #000000; stroke-width: 2; stroke-linecap: square"/>
   </g>
   <g id="line2d_44">
    <path d="M 841.411372 839.899627 
L 841.411372 654.483629 
" clip-path="url(#p7445426236)" style="fill: none; stroke: #000000; stroke-width: 2; stroke-linecap: square"/>
   </g>
   <g id="line2d_45">
    <path d="M 887.765372 654.483629 
L 887.765372 422.713632 
" clip-path="url(#p7445426236)" style="fill: none; stroke: #000000; stroke-width: 2; stroke-linecap: square"/>
   </g>
   <g id="line2d_46">
    <path d="M 1026.82737 654.483629 
L 1026.82737 422.713632 
" clip-path="url(#p7445426236)" style="fill: none; stroke: #000000; stroke-width: 2; stroke-linecap: square"/>
   </g>
   <g id="patch_3">
    <path d="M 81.203465 437.778682 
L 118.2913 437.778682 
L 118.2913 407.648582 
L 81.203465 407.648582 
z
" clip-path="url(#p7445426236)" style="fill: #ffffff; stroke: #000000; stroke-width: 1.5; stroke-linejoin: miter"/>
   </g>
   <g id="patch_4">
    <path d="M 81.203465 669.548679 
L 118.2913 669.548679 
L 118.2913 639.418579 
L 81.203465 639.418579 
z
" clip-path="url(#p7445426236)" style="fill: #ffffff; stroke: #000000; stroke-width: 1.5; stroke-linejoin: miter"/>
   </g>
   <g id="patch_5">
    <path d="M 84.682332 715.902678 
L 114.812432 715.902678 
L 114.812432 685.772579 
L 84.682332 685.772579 
z
" clip-path="url(#p7445426236)" style="fill: #ffffff; stroke: #000000; stroke-width: 1.5; stroke-linejoin: miter"/>
   </g>
   <g id="patch_6">
    <path d="M 146.101382 427.233147 
C 147.299971 427.233147 148.449631 426.756942 149.297161 425.909412 
C 150.144692 425.061881 150.620896 423.912221 150.620896 422.713632 
C 150.620896 421.515043 150.144692 420.365383 149.297161 419.517852 
C 148.449631 418.670322 147.299971 418.194117 146.101382 418.194117 
C 144.902792 418.194117 143.753133 418.670322 142.905602 419.517852 
C 142.058071 420.365383 141.581867 421.515043 141.581867 422.713632 
C 141.581867 423.912221 142.058071 425.061881 142.905602 425.909412 
C 143.753133 426.756942 144.902792 427.233147 146.101382 427.233147 
z
" clip-path="url(#p7445426236)" style="stroke: #000000; stroke-width: 1.5; stroke-linejoin: miter"/>
   </g>
   <g id="patch_7">
    <path d="M 146.101382 473.587146 
C 147.299971 473.587146 148.449631 473.110942 149.297161 472.263411 
C 150.144692 471.41588 150.620896 470.266221 150.620896 469.067631 
C 150.620896 467.869042 150.144692 466.719382 149.297161 465.871852 
C 148.449631 465.024321 147.299971 464.548117 146.101382 464.548117 
C 144.902792 464.548117 143.753133 465.024321 142.905602 465.871852 
C 142.058071 466.719382 141.581867 467.869042 141.581867 469.067631 
C 141.581867 470.266221 142.058071 471.41588 142.905602 472.263411 
C 143.753133 473.110942 144.902792 473.587146 146.101382 473.587146 
z
" clip-path="url(#p7445426236)" style="stroke: #000000; stroke-width: 1.5; stroke-linejoin: miter"/>
   </g>
   <g id="patch_8">
    <path d="M 146.101382 659.003144 
C 147.299971 659.003144 148.449631 658.526939 149.297161 657.679409 
C 150.144692 656.831878 150.620896 655.682218 150.620896 654.483629 
C 150.620896 653.28504 150.144692 652.13538 149.297161 651.287849 
C 148.449631 650.440319 147.299971 649.964114 146.101382 649.964114 
C 144.902792 649.964114 143.753133 650.440319 142.905602 651.287849 
C 142.058071 652.13538 141.581867 653.28504 141.581867 654.483629 
C 141.581867 655.682218 142.058071 656.831878 142.905602 657.679409 
C 143.753133 658.526939 144.902792 659.003144 146.101382 659.003144 
z
" clip-path="url(#p7445426236)" style="stroke: #000000; stroke-width: 1.5; stroke-linejoin: miter"/>
   </g>
   <g id="patch_9">
    <path d="M 146.101382 844.419141 
C 147.299971 844.419141 148.449631 843.942937 149.297161 843.095406 
C 150.144692 842.247876 150.620896 841.098216 150.620896 839.899627 
C 150.620896 838.701037 150.144692 837.551378 149.297161 836.703847 
C 148.449631 835.856316 147.299971 835.380112 146.101382 835.380112 
C 144.902792 835.380112 143.753133 835.856316 142.905602 836.703847 
C 142.058071 837.551378 141.581867 838.701037 141.581867 839.899627 
C 141.581867 841.098216 142.058071 842.247876 142.905602 843.095406 
C 143.753133 843.942937 144.902792 844.419141 146.101382 844.419141 
z
" clip-path="url(#p7445426236)" style="stroke: #000000; stroke-width: 1.5; stroke-linejoin: miter"/>
   </g>
   <g id="patch_10">
    <path d="M 174.780601 484.132681 
L 210.130161 484.132681 
L 210.130161 454.002582 
L 174.780601 454.002582 
z
" clip-path="url(#p7445426236)" style="fill: #ffffff; stroke: #000000; stroke-width: 1.5; stroke-linejoin: miter"/>
   </g>
   <g id="patch_11">
    <path d="M 177.390331 854.964676 
L 207.520431 854.964676 
L 207.520431 824.834577 
L 177.390331 824.834577 
z
" clip-path="url(#p7445426236)" style="fill: #ffffff; stroke: #000000; stroke-width: 1.5; stroke-linejoin: miter"/>
   </g>
   <g id="patch_12">
    <path d="M 238.80938 427.233147 
C 240.00797 427.233147 241.157629 426.756942 242.00516 425.909412 
C 242.852691 425.061881 243.328895 423.912221 243.328895 422.713632 
C 243.328895 421.515043 242.852691 420.365383 242.00516 419.517852 
C 241.157629 418.670322 240.00797 418.194117 238.80938 418.194117 
C 237.610791 418.194117 236.461131 418.670322 235.613601 419.517852 
C 234.76607 420.365383 234.289865 421.515043 234.289865 422.713632 
C 234.289865 423.912221 234.76607 425.061881 235.613601 425.909412 
C 236.461131 426.756942 237.610791 427.233147 238.80938 427.233147 
z
" clip-path="url(#p7445426236)" style="stroke: #000000; stroke-width: 1.5; stroke-linejoin: miter"/>
   </g>
   <g id="patch_13">
    <path d="M 238.80938 473.587146 
C 240.00797 473.587146 241.157629 473.110942 242.00516 472.263411 
C 242.852691 471.41588 243.328895 470.266221 243.328895 469.067631 
C 243.328895 467.869042 242.852691 466.719382 242.00516 465.871852 
C 241.157629 465.024321 240.00797 464.548117 238.80938 464.548117 
C 237.610791 464.548117 236.461131 465.024321 235.613601 465.871852 
C 234.76607 466.719382 234.289865 467.869042 234.289865 469.067631 
C 234.289865 470.266221 234.76607 471.41588 235.613601 472.263411 
C 236.461131 473.110942 237.610791 473.587146 238.80938 473.587146 
z
" clip-path="url(#p7445426236)" style="stroke: #000000; stroke-width: 1.5; stroke-linejoin: miter"/>
   </g>
   <g id="patch_14">
    <path d="M 238.80938 659.003144 
C 240.00797 659.003144 241.157629 658.526939 242.00516 657.679409 
C 242.852691 656.831878 243.328895 655.682218 243.328895 654.483629 
C 243.328895 653.28504 242.852691 652.13538 242.00516 651.287849 
C 241.157629 650.440319 240.00797 649.964114 238.80938 649.964114 
C 237.610791 649.964114 236.461131 650.440319 235.613601 651.287849 
C 234.76607 652.13538 234.289865 653.28504 234.289865 654.483629 
C 234.289865 655.682218 234.76607 656.831878 235.613601 657.679409 
C 236.461131 658.526939 237.610791 659.003144 238.80938 659.003144 
z
" clip-path="url(#p7445426236)" style="stroke: #000000; stroke-width: 1.5; stroke-linejoin: miter"/>
   </g>
   <g id="patch_15">
    <path d="M 238.80938 844.419141 
C 240.00797 844.419141 241.157629 843.942937 242.00516 843.095406 
C 242.852691 842.247876 243.328895 841.098216 243.328895 839.899627 
C 243.328895 838.701037 242.852691 837.551378 242.00516 836.703847 
C 241.157629 835.856316 240.00797 835.380112 238.80938 835.380112 
C 237.610791 835.380112 236.461131 835.856316 235.613601 836.703847 
C 234.76607 837.551378 234.289865 838.701037 234.289865 839.899627 
C 234.289865 841.098216 234.76607 842.247876 235.613601 843.095406 
C 236.461131 843.942937 237.610791 844.419141 238.80938 844.419141 
z
" clip-path="url(#p7445426236)" style="stroke: #000000; stroke-width: 1.5; stroke-linejoin: miter"/>
   </g>
   <g id="patch_16">
    <path d="M 266.619462 484.132681 
L 303.707297 484.132681 
L 303.707297 454.002582 
L 266.619462 454.002582 
z
" clip-path="url(#p7445426236)" style="fill: #ffffff; stroke: #000000; stroke-width: 1.5; stroke-linejoin: miter"/>
   </g>
   <g id="patch_17">
    <path d="M 266.619462 669.548679 
L 303.707297 669.548679 
L 303.707297 639.418579 
L 266.619462 639.418579 
z
" clip-path="url(#p7445426236)" style="fill: #ffffff; stroke: #000000; stroke-width: 1.5; stroke-linejoin: miter"/>
   </g>
   <g id="patch_18">
    <path d="M 266.619462 854.964676 
L 303.707297 854.964676 
L 303.707297 824.834577 
L 266.619462 824.834577 
z
" clip-path="url(#p7445426236)" style="fill: #ffffff; stroke: #000000; stroke-width: 1.5; stroke-linejoin: miter"/>
   </g>
   <g id="patch_19">
    <path d="M 331.517379 659.003144 
C 332.715968 659.003144 333.865628 658.526939 334.713159 657.679409 
C 335.560689 656.831878 336.036894 655.682218 336.036894 654.483629 
C 336.036894 653.28504 335.560689 652.13538 334.713159 651.287849 
C 333.865628 650.440319 332.715968 649.964114 331.517379 649.964114 
C 330.31879 649.964114 329.16913 650.440319 328.321599 651.287849 
C 327.474069 652.13538 326.997864 653.28504 326.997864 654.483629 
C 326.997864 655.682218 327.474069 656.831878 328.321599 657.679409 
C 329.16913 658.526939 330.31879 659.003144 331.517379 659.003144 
z
" clip-path="url(#p7445426236)" style="stroke: #000000; stroke-width: 1.5; stroke-linejoin: miter"/>
   </g>
   <g id="patch_20">
    <path d="M 331.517379 705.357143 
C 332.715968 705.357143 333.865628 704.880939 334.713159 704.033408 
C 335.560689 703.185877 336.036894 702.036218 336.036894 700.837628 
C 336.036894 699.639039 335.560689 698.489379 334.713159 697.641849 
C 333.865628 696.794318 332.715968 696.318113 331.517379 696.318113 
C 330.31879 696.318113 329.16913 696.794318 328.321599 697.641849 
C 327.474069 698.489379 326.997864 699.639039 326.997864 700.837628 
C 326.997864 702.036218 327.474069 703.185877 328.321599 704.033408 
C 329.16913 704.880939 330.31879 705.357143 331.517379 705.357143 
z
" clip-path="url(#p7445426236)" style="stroke: #000000; stroke-width: 1.5; stroke-linejoin: miter"/>
   </g>
   <g id="patch_21">
    <path d="M 359.327461 669.548679 
L 396.415296 669.548679 
L 396.415296 639.418579 
L 359.327461 639.418579 
z
" clip-path="url(#p7445426236)" style="fill: #ffffff; stroke: #000000; stroke-width: 1.5; stroke-linejoin: miter"/>
   </g>
   <g id="patch_22">
    <path d="M 358.41197 715.902678 
L 397.330787 715.902678 
L 397.330787 685.772579 
L 358.41197 685.772579 
z
" clip-path="url(#p7445426236)" style="fill: #ffffff; stroke: #000000; stroke-width: 1.5; stroke-linejoin: miter"/>
   </g>
   <g id="patch_23">
    <path d="M 424.225378 659.003144 
C 425.423967 659.003144 426.573627 658.526939 427.421158 657.679409 
C 428.268688 656.831878 428.744893 655.682218 428.744893 654.483629 
C 428.744893 653.28504 428.268688 652.13538 427.421158 651.287849 
C 426.573627 650.440319 425.423967 649.964114 424.225378 649.964114 
C 423.026788 649.964114 421.877129 650.440319 421.029598 651.287849 
C 420.182068 652.13538 419.705863 653.28504 419.705863 654.483629 
C 419.705863 655.682218 420.182068 656.831878 421.029598 657.679409 
C 421.877129 658.526939 423.026788 659.003144 424.225378 659.003144 
z
" clip-path="url(#p7445426236)" style="stroke: #000000; stroke-width: 1.5; stroke-linejoin: miter"/>
   </g>
   <g id="patch_24">
    <path d="M 424.225378 705.357143 
C 425.423967 705.357143 426.573627 704.880939 427.421158 704.033408 
C 428.268688 703.185877 428.744893 702.036218 428.744893 700.837628 
C 428.744893 699.639039 428.268688 698.489379 427.421158 697.641849 
C 426.573627 696.794318 425.423967 696.318113 424.225378 696.318113 
C 423.026788 696.318113 421.877129 696.794318 421.029598 697.641849 
C 420.182068 698.489379 419.705863 699.639039 419.705863 700.837628 
C 419.705863 702.036218 420.182068 703.185877 421.029598 704.033408 
C 421.877129 704.880939 423.026788 705.357143 424.225378 705.357143 
z
" clip-path="url(#p7445426236)" style="stroke: #000000; stroke-width: 1.5; stroke-linejoin: miter"/>
   </g>
   <g id="patch_25">
    <path d="M 451.986788 669.548679 
L 489.171966 669.548679 
L 489.171966 639.418579 
L 451.986788 639.418579 
z
" clip-path="url(#p7445426236)" style="fill: #ffffff; stroke: #000000; stroke-width: 1.5; stroke-linejoin: miter"/>
   </g>
   <g id="patch_26">
    <path d="M 452.03546 715.902678 
L 489.123295 715.902678 
L 489.123295 685.772579 
L 452.03546 685.772579 
z
" clip-path="url(#p7445426236)" style="fill: #ffffff; stroke: #000000; stroke-width: 1.5; stroke-linejoin: miter"/>
   </g>
   <g id="patch_27">
    <path d="M 516.933377 659.003144 
C 518.131966 659.003144 519.281626 658.526939 520.129156 657.679409 
C 520.976687 656.831878 521.452892 655.682218 521.452892 654.483629 
C 521.452892 653.28504 520.976687 652.13538 520.129156 651.287849 
C 519.281626 650.440319 518.131966 649.964114 516.933377 649.964114 
C 515.734787 649.964114 514.585128 650.440319 513.737597 651.287849 
C 512.890066 652.13538 512.413862 653.28504 512.413862 654.483629 
C 512.413862 655.682218 512.890066 656.831878 513.737597 657.679409 
C 514.585128 658.526939 515.734787 659.003144 516.933377 659.003144 
z
" clip-path="url(#p7445426236)" style="stroke: #000000; stroke-width: 1.5; stroke-linejoin: miter"/>
   </g>
   <g id="patch_28">
    <path d="M 516.933377 705.357143 
C 518.131966 705.357143 519.281626 704.880939 520.129156 704.033408 
C 520.976687 703.185877 521.452892 702.036218 521.452892 700.837628 
C 521.452892 699.639039 520.976687 698.489379 520.129156 697.641849 
C 519.281626 696.794318 518.131966 696.318113 516.933377 696.318113 
C 515.734787 696.318113 514.585128 696.794318 513.737597 697.641849 
C 512.890066 698.489379 512.413862 699.639039 512.413862 700.837628 
C 512.413862 702.036218 512.890066 703.185877 513.737597 704.033408 
C 514.585128 704.880939 515.734787 705.357143 516.933377 705.357143 
z
" clip-path="url(#p7445426236)" style="stroke: #000000; stroke-width: 1.5; stroke-linejoin: miter"/>
   </g>
   <g id="patch_29">
    <path d="M 548.222326 669.548679 
L 578.352426 669.548679 
L 578.352426 639.418579 
L 548.222326 639.418579 
z
" clip-path="url(#p7445426236)" style="fill: #ffffff; stroke: #000000; stroke-width: 1.5; stroke-linejoin: miter"/>
   </g>
   <g id="patch_30">
    <path d="M 544.743459 715.902678 
L 581.831293 715.902678 
L 581.831293 685.772579 
L 544.743459 685.772579 
z
" clip-path="url(#p7445426236)" style="fill: #ffffff; stroke: #000000; stroke-width: 1.5; stroke-linejoin: miter"/>
   </g>
   <g id="patch_31">
    <path d="M 609.641375 473.587146 
C 610.839965 473.587146 611.989624 473.110942 612.837155 472.263411 
C 613.684686 471.41588 614.16089 470.266221 614.16089 469.067631 
C 614.16089 467.869042 613.684686 466.719382 612.837155 465.871852 
C 611.989624 465.024321 610.839965 464.548117 609.641375 464.548117 
C 608.442786 464.548117 607.293126 465.024321 606.445596 465.871852 
C 605.598065 466.719382 605.12186 467.869042 605.12186 469.067631 
C 605.12186 470.266221 605.598065 471.41588 606.445596 472.263411 
C 607.293126 473.110942 608.442786 473.587146 609.641375 473.587146 
z
" clip-path="url(#p7445426236)" style="stroke: #000000; stroke-width: 1.5; stroke-linejoin: miter"/>
   </g>
   <g id="patch_32">
    <path d="M 609.641375 705.357143 
C 610.839965 705.357143 611.989624 704.880939 612.837155 704.033408 
C 613.684686 703.185877 614.16089 702.036218 614.16089 700.837628 
C 614.16089 699.639039 613.684686 698.489379 612.837155 697.641849 
C 611.989624 696.794318 610.839965 696.318113 609.641375 696.318113 
C 608.442786 696.318113 607.293126 696.794318 606.445596 697.641849 
C 605.598065 698.489379 605.12186 699.639039 605.12186 700.837628 
C 605.12186 702.036218 605.598065 703.185877 606.445596 704.033408 
C 607.293126 704.880939 608.442786 705.357143 609.641375 705.357143 
z
" clip-path="url(#p7445426236)" style="stroke: #000000; stroke-width: 1.5; stroke-linejoin: miter"/>
   </g>
   <g id="patch_33">
    <path d="M 655.995375 844.419141 
C 657.193964 844.419141 658.343624 843.942937 659.191154 843.095406 
C 660.038685 842.247876 660.51489 841.098216 660.51489 839.899627 
C 660.51489 838.701037 660.038685 837.551378 659.191154 836.703847 
C 658.343624 835.856316 657.193964 835.380112 655.995375 835.380112 
C 654.796785 835.380112 653.647126 835.856316 652.799595 836.703847 
C 651.952064 837.551378 651.47586 838.701037 651.47586 839.899627 
C 651.47586 841.098216 651.952064 842.247876 652.799595 843.095406 
C 653.647126 843.942937 654.796785 844.419141 655.995375 844.419141 
z
" clip-path="url(#p7445426236)" style="stroke: #000000; stroke-width: 1.5; stroke-linejoin: miter"/>
   </g>
   <g id="patch_34">
    <path d="M 655.995375 659.003144 
C 657.193964 659.003144 658.343624 658.526939 659.191154 657.679409 
C 660.038685 656.831878 660.51489 655.682218 660.51489 654.483629 
C 660.51489 653.28504 660.038685 652.13538 659.191154 651.287849 
C 658.343624 650.440319 657.193964 649.964114 655.995375 649.964114 
C 654.796785 649.964114 653.647126 650.440319 652.799595 651.287849 
C 651.952064 652.13538 651.47586 653.28504 651.47586 654.483629 
C 651.47586 655.682218 651.952064 656.831878 652.799595 657.679409 
C 653.647126 658.526939 654.796785 659.003144 655.995375 659.003144 
z
" clip-path="url(#p7445426236)" style="stroke: #000000; stroke-width: 1.5; stroke-linejoin: miter"/>
   </g>
   <g id="patch_35">
    <path d="M 702.634451 715.902678 
L 748.418296 715.902678 
L 748.418296 685.772579 
L 702.634451 685.772579 
z
" clip-path="url(#p7445426236)" style="fill: #ffffff; stroke: #000000; stroke-width: 1.5; stroke-linejoin: miter"/>
   </g>
   <g id="patch_36">
    <path d="M 701.137217 669.548679 
L 749.915531 669.548679 
L 749.915531 639.418579 
L 701.137217 639.418579 
z
" clip-path="url(#p7445426236)" style="fill: #ffffff; stroke: #000000; stroke-width: 1.5; stroke-linejoin: miter"/>
   </g>
   <g id="patch_37">
    <path d="M 795.057373 473.587146 
C 796.255962 473.587146 797.405622 473.110942 798.253153 472.263411 
C 799.100683 471.41588 799.576888 470.266221 799.576888 469.067631 
C 799.576888 467.869042 799.100683 466.719382 798.253153 465.871852 
C 797.405622 465.024321 796.255962 464.548117 795.057373 464.548117 
C 793.858784 464.548117 792.709124 465.024321 791.861593 465.871852 
C 791.014063 466.719382 790.537858 467.869042 790.537858 469.067631 
C 790.537858 470.266221 791.014063 471.41588 791.861593 472.263411 
C 792.709124 473.110942 793.858784 473.587146 795.057373 473.587146 
z
" clip-path="url(#p7445426236)" style="stroke: #000000; stroke-width: 1.5; stroke-linejoin: miter"/>
   </g>
   <g id="patch_38">
    <path d="M 795.057373 705.357143 
C 796.255962 705.357143 797.405622 704.880939 798.253153 704.033408 
C 799.100683 703.185877 799.576888 702.036218 799.576888 700.837628 
C 799.576888 699.639039 799.100683 698.489379 798.253153 697.641849 
C 797.405622 696.794318 796.255962 696.318113 795.057373 696.318113 
C 793.858784 696.318113 792.709124 696.794318 791.861593 697.641849 
C 791.014063 698.489379 790.537858 699.639039 790.537858 700.837628 
C 790.537858 702.036218 791.014063 703.185877 791.861593 704.033408 
C 792.709124 704.880939 793.858784 705.357143 795.057373 705.357143 
z
" clip-path="url(#p7445426236)" style="stroke: #000000; stroke-width: 1.5; stroke-linejoin: miter"/>
   </g>
   <g id="patch_39">
    <path d="M 841.411372 844.419141 
C 842.609962 844.419141 843.759621 843.942937 844.607152 843.095406 
C 845.454683 842.247876 845.930887 841.098216 845.930887 839.899627 
C 845.930887 838.701037 845.454683 837.551378 844.607152 836.703847 
C 843.759621 835.856316 842.609962 835.380112 841.411372 835.380112 
C 840.212783 835.380112 839.063123 835.856316 838.215593 836.703847 
C 837.368062 837.551378 836.891857 838.701037 836.891857 839.899627 
C 836.891857 841.098216 837.368062 842.247876 838.215593 843.095406 
C 839.063123 843.942937 840.212783 844.419141 841.411372 844.419141 
z
" clip-path="url(#p7445426236)" style="stroke: #000000; stroke-width: 1.5; stroke-linejoin: miter"/>
   </g>
   <g id="patch_40">
    <path d="M 841.411372 659.003144 
C 842.609962 659.003144 843.759621 658.526939 844.607152 657.679409 
C 845.454683 656.831878 845.930887 655.682218 845.930887 654.483629 
C 845.930887 653.28504 845.454683 652.13538 844.607152 651.287849 
C 843.759621 650.440319 842.609962 649.964114 841.411372 649.964114 
C 840.212783 649.964114 839.063123 650.440319 838.215593 651.287849 
C 837.368062 652.13538 836.891857 653.28504 836.891857 654.483629 
C 836.891857 655.682218 837.368062 656.831878 838.215593 657.679409 
C 839.063123 658.526939 840.212783 659.003144 841.411372 659.003144 
z
" clip-path="url(#p7445426236)" style="stroke: #000000; stroke-width: 1.5; stroke-linejoin: miter"/>
   </g>
   <g id="patch_41">
    <path d="M 822.867455 484.132681 
L 859.95529 484.132681 
L 859.95529 454.002582 
L 822.867455 454.002582 
z
" clip-path="url(#p7445426236)" style="fill: #ffffff; stroke: #000000; stroke-width: 1.5; stroke-linejoin: miter"/>
   </g>
   <g id="patch_42">
    <path d="M 872.700322 715.902678 
L 902.830421 715.902678 
L 902.830421 685.772579 
L 872.700322 685.772579 
z
" clip-path="url(#p7445426236)" style="fill: #ffffff; stroke: #000000; stroke-width: 1.5; stroke-linejoin: miter"/>
   </g>
   <g id="patch_43">
    <path d="M 887.765372 427.233147 
C 888.963961 427.233147 890.113621 426.756942 890.961151 425.909412 
C 891.808682 425.061881 892.284887 423.912221 892.284887 422.713632 
C 892.284887 421.515043 891.808682 420.365383 890.961151 419.517852 
C 890.113621 418.670322 888.963961 418.194117 887.765372 418.194117 
C 886.566782 418.194117 885.417123 418.670322 884.569592 419.517852 
C 883.722061 420.365383 883.245857 421.515043 883.245857 422.713632 
C 883.245857 423.912221 883.722061 425.061881 884.569592 425.909412 
C 885.417123 426.756942 886.566782 427.233147 887.765372 427.233147 
z
" clip-path="url(#p7445426236)" style="stroke: #000000; stroke-width: 1.5; stroke-linejoin: miter"/>
   </g>
   <g id="patch_44">
    <path d="M 887.765372 659.003144 
C 888.963961 659.003144 890.113621 658.526939 890.961151 657.679409 
C 891.808682 656.831878 892.284887 655.682218 892.284887 654.483629 
C 892.284887 653.28504 891.808682 652.13538 890.961151 651.287849 
C 890.113621 650.440319 888.963961 649.964114 887.765372 649.964114 
C 886.566782 649.964114 885.417123 650.440319 884.569592 651.287849 
C 883.722061 652.13538 883.245857 653.28504 883.245857 654.483629 
C 883.245857 655.682218 883.722061 656.831878 884.569592 657.679409 
C 885.417123 658.526939 886.566782 659.003144 887.765372 659.003144 
z
" clip-path="url(#p7445426236)" style="stroke: #000000; stroke-width: 1.5; stroke-linejoin: miter"/>
   </g>
   <g id="patch_45">
    <path d="M 869.221454 854.964676 
L 906.309289 854.964676 
L 906.309289 824.834577 
L 869.221454 824.834577 
z
" clip-path="url(#p7445426236)" style="fill: #ffffff; stroke: #000000; stroke-width: 1.5; stroke-linejoin: miter"/>
   </g>
   <g id="patch_46">
    <path d="M 932.955886 669.548679 
L 981.636856 669.548679 
L 981.636856 639.418579 
L 932.955886 639.418579 
z
" clip-path="url(#p7445426236)" style="fill: #ffffff; stroke: #000000; stroke-width: 1.5; stroke-linejoin: miter"/>
   </g>
   <g id="patch_47">
    <path d="M 1026.82737 427.233147 
C 1028.025959 427.233147 1029.175619 426.756942 1030.02315 425.909412 
C 1030.87068 425.061881 1031.346885 423.912221 1031.346885 422.713632 
C 1031.346885 421.515043 1030.87068 420.365383 1030.02315 419.517852 
C 1029.175619 418.670322 1028.025959 418.194117 1026.82737 418.194117 
C 1025.62878 418.194117 1024.479121 418.670322 1023.63159 419.517852 
C 1022.78406 420.365383 1022.307855 421.515043 1022.307855 422.713632 
C 1022.307855 423.912221 1022.78406 425.061881 1023.63159 425.909412 
C 1024.479121 426.756942 1025.62878 427.233147 1026.82737 427.233147 
z
" clip-path="url(#p7445426236)" style="stroke: #000000; stroke-width: 1.5; stroke-linejoin: miter"/>
   </g>
   <g id="patch_48">
    <path d="M 1026.82737 659.003144 
C 1028.025959 659.003144 1029.175619 658.526939 1030.02315 657.679409 
C 1030.87068 656.831878 1031.346885 655.682218 1031.346885 654.483629 
C 1031.346885 653.28504 1030.87068 652.13538 1030.02315 651.287849 
C 1029.175619 650.440319 1028.025959 649.964114 1026.82737 649.964114 
C 1025.62878 649.964114 1024.479121 650.440319 1023.63159 651.287849 
C 1022.78406 652.13538 1022.307855 653.28504 1022.307855 654.483629 
C 1022.307855 655.682218 1022.78406 656.831878 1023.63159 657.679409 
C 1024.479121 658.526939 1025.62878 659.003144 1026.82737 659.003144 
z
" clip-path="url(#p7445426236)" style="stroke: #000000; stroke-width: 1.5; stroke-linejoin: miter"/>
   </g>
   <g id="patch_49">
    <path d="M 1054.637452 437.778682 
L 1091.725287 437.778682 
L 1091.725287 407.648582 
L 1054.637452 407.648582 
z
" clip-path="url(#p7445426236)" style="fill: #ffffff; stroke: #000000; stroke-width: 1.5; stroke-linejoin: miter"/>
   </g>
   <g id="patch_50">
    <path d="M 1058.116319 669.548679 
L 1088.246419 669.548679 
L 1088.246419 639.418579 
L 1058.116319 639.418579 
z
" clip-path="url(#p7445426236)" style="fill: #ffffff; stroke: #000000; stroke-width: 1.5; stroke-linejoin: miter"/>
   </g>
   <g id="text_2">
    <g clip-path="url(#p7445426236)">
     <!-- ${q}_{0}$ -->
     <g transform="translate(47.407923 56.332614) scale(0.1625 -0.1625)">
      <defs>
       <path id="DejaVuSans-Oblique-71" d="M 2669 525 
Q 2438 222 2123 65 
Q 1809 -91 1428 -91 
Q 897 -91 595 267 
Q 294 625 294 1253 
Q 294 1759 480 2231 
Q 666 2703 1013 3078 
Q 1238 3322 1530 3453 
Q 1822 3584 2144 3584 
Q 2531 3584 2781 3431 
Q 3031 3278 3144 2969 
L 3244 3494 
L 3822 3494 
L 2888 -1319 
L 2309 -1319 
L 2669 525 
z
M 891 1338 
Q 891 875 1084 633 
Q 1278 391 1644 391 
Q 2188 391 2572 911 
Q 2956 1431 2956 2175 
Q 2956 2625 2757 2864 
Q 2559 3103 2188 3103 
Q 1916 3103 1684 2976 
Q 1453 2850 1281 2606 
Q 1100 2350 995 2006 
Q 891 1663 891 1338 
z
" transform="scale(0.015625)"/>
       <path id="DejaVuSans-30" d="M 2034 4250 
Q 1547 4250 1301 3770 
Q 1056 3291 1056 2328 
Q 1056 1369 1301 889 
Q 1547 409 2034 409 
Q 2525 409 2770 889 
Q 3016 1369 3016 2328 
Q 3016 3291 2770 3770 
Q 2525 4250 2034 4250 
z
M 2034 4750 
Q 2819 4750 3233 4129 
Q 3647 3509 3647 2328 
Q 3647 1150 3233 529 
Q 2819 -91 2034 -91 
Q 1250 -91 836 529 
Q 422 1150 422 2328 
Q 422 3509 836 4129 
Q 1250 4750 2034 4750 
z
" transform="scale(0.015625)"/>
      </defs>
      <use xlink:href="#DejaVuSans-Oblique-71"/>
      <use xlink:href="#DejaVuSans-30" transform="translate(63.476562 -16.40625) scale(0.7)"/>
     </g>
    </g>
   </g>
   <g id="text_3">
    <g clip-path="url(#p7445426236)">
     <!-- ${q}_{1}$ -->
     <g transform="translate(47.407923 102.686613) scale(0.1625 -0.1625)">
      <defs>
       <path id="DejaVuSans-31" d="M 794 531 
L 1825 531 
L 1825 4091 
L 703 3866 
L 703 4441 
L 1819 4666 
L 2450 4666 
L 2450 531 
L 3481 531 
L 3481 0 
L 794 0 
L 794 531 
z
" transform="scale(0.015625)"/>
      </defs>
      <use xlink:href="#DejaVuSans-Oblique-71"/>
      <use xlink:href="#DejaVuSans-31" transform="translate(63.476562 -16.40625) scale(0.7)"/>
     </g>
    </g>
   </g>
   <g id="text_4">
    <g clip-path="url(#p7445426236)">
     <!-- ${q}_{2}$ -->
     <g transform="translate(47.407923 149.040612) scale(0.1625 -0.1625)">
      <use xlink:href="#DejaVuSans-Oblique-71"/>
      <use xlink:href="#DejaVuSans-32" transform="translate(63.476562 -16.40625) scale(0.7)"/>
     </g>
    </g>
   </g>
   <g id="text_5">
    <g clip-path="url(#p7445426236)">
     <!-- ${q}_{3}$ -->
     <g transform="translate(47.407923 195.394612) scale(0.1625 -0.1625)">
      <defs>
       <path id="DejaVuSans-33" d="M 2597 2516 
Q 3050 2419 3304 2112 
Q 3559 1806 3559 1356 
Q 3559 666 3084 287 
Q 2609 -91 1734 -91 
Q 1441 -91 1130 -33 
Q 819 25 488 141 
L 488 750 
Q 750 597 1062 519 
Q 1375 441 1716 441 
Q 2309 441 2620 675 
Q 2931 909 2931 1356 
Q 2931 1769 2642 2001 
Q 2353 2234 1838 2234 
L 1294 2234 
L 1294 2753 
L 1863 2753 
Q 2328 2753 2575 2939 
Q 2822 3125 2822 3475 
Q 2822 3834 2567 4026 
Q 2313 4219 1838 4219 
Q 1578 4219 1281 4162 
Q 984 4106 628 3988 
L 628 4550 
Q 988 4650 1302 4700 
Q 1616 4750 1894 4750 
Q 2613 4750 3031 4423 
Q 3450 4097 3450 3541 
Q 3450 3153 3228 2886 
Q 3006 2619 2597 2516 
z
" transform="scale(0.015625)"/>
      </defs>
      <use xlink:href="#DejaVuSans-Oblique-71"/>
      <use xlink:href="#DejaVuSans-33" transform="translate(63.476562 -16.40625) scale(0.7)"/>
     </g>
    </g>
   </g>
   <g id="text_6">
    <g clip-path="url(#p7445426236)">
     <!-- ${q}_{4}$ -->
     <g transform="translate(47.407923 241.748611) scale(0.1625 -0.1625)">
      <defs>
       <path id="DejaVuSans-34" d="M 2419 4116 
L 825 1625 
L 2419 1625 
L 2419 4116 
z
M 2253 4666 
L 3047 4666 
L 3047 1625 
L 3713 1625 
L 3713 1100 
L 3047 1100 
L 3047 0 
L 2419 0 
L 2419 1100 
L 313 1100 
L 313 1709 
L 2253 4666 
z
" transform="scale(0.015625)"/>
      </defs>
      <use xlink:href="#DejaVuSans-Oblique-71"/>
      <use xlink:href="#DejaVuSans-34" transform="translate(63.476562 -16.40625) scale(0.7)"/>
     </g>
    </g>
   </g>
   <g id="text_7">
    <g clip-path="url(#p7445426236)">
     <!-- ${q}_{5}$ -->
     <g transform="translate(47.407923 288.10261) scale(0.1625 -0.1625)">
      <defs>
       <path id="DejaVuSans-35" d="M 691 4666 
L 3169 4666 
L 3169 4134 
L 1269 4134 
L 1269 2991 
Q 1406 3038 1543 3061 
Q 1681 3084 1819 3084 
Q 2600 3084 3056 2656 
Q 3513 2228 3513 1497 
Q 3513 744 3044 326 
Q 2575 -91 1722 -91 
Q 1428 -91 1123 -41 
Q 819 9 494 109 
L 494 744 
Q 775 591 1075 516 
Q 1375 441 1709 441 
Q 2250 441 2565 725 
Q 2881 1009 2881 1497 
Q 2881 1984 2565 2268 
Q 2250 2553 1709 2553 
Q 1456 2553 1204 2497 
Q 953 2441 691 2322 
L 691 4666 
z
" transform="scale(0.015625)"/>
      </defs>
      <use xlink:href="#DejaVuSans-Oblique-71"/>
      <use xlink:href="#DejaVuSans-35" transform="translate(63.476562 -16.40625) scale(0.7)"/>
     </g>
    </g>
   </g>
   <g id="text_8">
    <g clip-path="url(#p7445426236)">
     <!-- ${q}_{6}$ -->
     <g transform="translate(47.407923 334.45661) scale(0.1625 -0.1625)">
      <defs>
       <path id="DejaVuSans-36" d="M 2113 2584 
Q 1688 2584 1439 2293 
Q 1191 2003 1191 1497 
Q 1191 994 1439 701 
Q 1688 409 2113 409 
Q 2538 409 2786 701 
Q 3034 994 3034 1497 
Q 3034 2003 2786 2293 
Q 2538 2584 2113 2584 
z
M 3366 4563 
L 3366 3988 
Q 3128 4100 2886 4159 
Q 2644 4219 2406 4219 
Q 1781 4219 1451 3797 
Q 1122 3375 1075 2522 
Q 1259 2794 1537 2939 
Q 1816 3084 2150 3084 
Q 2853 3084 3261 2657 
Q 3669 2231 3669 1497 
Q 3669 778 3244 343 
Q 2819 -91 2113 -91 
Q 1303 -91 875 529 
Q 447 1150 447 2328 
Q 447 3434 972 4092 
Q 1497 4750 2381 4750 
Q 2619 4750 2861 4703 
Q 3103 4656 3366 4563 
z
" transform="scale(0.015625)"/>
      </defs>
      <use xlink:href="#DejaVuSans-Oblique-71"/>
      <use xlink:href="#DejaVuSans-36" transform="translate(63.476562 -16.40625) scale(0.7)"/>
     </g>
    </g>
   </g>
   <g id="text_9">
    <g clip-path="url(#p7445426236)">
     <!-- ${q}_{7}$ -->
     <g transform="translate(47.407923 380.810609) scale(0.1625 -0.1625)">
      <defs>
       <path id="DejaVuSans-37" d="M 525 4666 
L 3525 4666 
L 3525 4397 
L 1831 0 
L 1172 0 
L 2766 4134 
L 525 4134 
L 525 4666 
z
" transform="scale(0.015625)"/>
      </defs>
      <use xlink:href="#DejaVuSans-Oblique-71"/>
      <use xlink:href="#DejaVuSans-37" transform="translate(63.476562 -16.40625) scale(0.7)"/>
     </g>
    </g>
   </g>
   <g id="text_10">
    <g clip-path="url(#p7445426236)">
     <!-- ${q}_{8}$ -->
     <g transform="translate(47.407923 427.164609) scale(0.1625 -0.1625)">
      <defs>
       <path id="DejaVuSans-38" d="M 2034 2216 
Q 1584 2216 1326 1975 
Q 1069 1734 1069 1313 
Q 1069 891 1326 650 
Q 1584 409 2034 409 
Q 2484 409 2743 651 
Q 3003 894 3003 1313 
Q 3003 1734 2745 1975 
Q 2488 2216 2034 2216 
z
M 1403 2484 
Q 997 2584 770 2862 
Q 544 3141 544 3541 
Q 544 4100 942 4425 
Q 1341 4750 2034 4750 
Q 2731 4750 3128 4425 
Q 3525 4100 3525 3541 
Q 3525 3141 3298 2862 
Q 3072 2584 2669 2484 
Q 3125 2378 3379 2068 
Q 3634 1759 3634 1313 
Q 3634 634 3220 271 
Q 2806 -91 2034 -91 
Q 1263 -91 848 271 
Q 434 634 434 1313 
Q 434 1759 690 2068 
Q 947 2378 1403 2484 
z
M 1172 3481 
Q 1172 3119 1398 2916 
Q 1625 2713 2034 2713 
Q 2441 2713 2670 2916 
Q 2900 3119 2900 3481 
Q 2900 3844 2670 4047 
Q 2441 4250 2034 4250 
Q 1625 4250 1398 4047 
Q 1172 3844 1172 3481 
z
" transform="scale(0.015625)"/>
      </defs>
      <use xlink:href="#DejaVuSans-Oblique-71"/>
      <use xlink:href="#DejaVuSans-38" transform="translate(63.476562 -16.40625) scale(0.7)"/>
     </g>
    </g>
   </g>
   <g id="text_11">
    <g clip-path="url(#p7445426236)">
     <!-- ${q}_{9}$ -->
     <g transform="translate(47.407923 473.518608) scale(0.1625 -0.1625)">
      <defs>
       <path id="DejaVuSans-39" d="M 703 97 
L 703 672 
Q 941 559 1184 500 
Q 1428 441 1663 441 
Q 2288 441 2617 861 
Q 2947 1281 2994 2138 
Q 2813 1869 2534 1725 
Q 2256 1581 1919 1581 
Q 1219 1581 811 2004 
Q 403 2428 403 3163 
Q 403 3881 828 4315 
Q 1253 4750 1959 4750 
Q 2769 4750 3195 4129 
Q 3622 3509 3622 2328 
Q 3622 1225 3098 567 
Q 2575 -91 1691 -91 
Q 1453 -91 1209 -44 
Q 966 3 703 97 
z
M 1959 2075 
Q 2384 2075 2632 2365 
Q 2881 2656 2881 3163 
Q 2881 3666 2632 3958 
Q 2384 4250 1959 4250 
Q 1534 4250 1286 3958 
Q 1038 3666 1038 3163 
Q 1038 2656 1286 2365 
Q 1534 2075 1959 2075 
z
" transform="scale(0.015625)"/>
      </defs>
      <use xlink:href="#DejaVuSans-Oblique-71"/>
      <use xlink:href="#DejaVuSans-39" transform="translate(63.476562 -16.40625) scale(0.7)"/>
     </g>
    </g>
   </g>
   <g id="text_12">
    <g clip-path="url(#p7445426236)">
     <!-- ${q}_{10}$ -->
     <g transform="translate(40.095423 519.872607) scale(0.1625 -0.1625)">
      <use xlink:href="#DejaVuSans-Oblique-71"/>
      <use xlink:href="#DejaVuSans-31" transform="translate(63.476562 -16.40625) scale(0.7)"/>
      <use xlink:href="#DejaVuSans-30" transform="translate(108.012695 -16.40625) scale(0.7)"/>
     </g>
    </g>
   </g>
   <g id="text_13">
    <g clip-path="url(#p7445426236)">
     <!-- ${q}_{11}$ -->
     <g transform="translate(40.095423 566.226607) scale(0.1625 -0.1625)">
      <use xlink:href="#DejaVuSans-Oblique-71"/>
      <use xlink:href="#DejaVuSans-31" transform="translate(63.476562 -16.40625) scale(0.7)"/>
      <use xlink:href="#DejaVuSans-31" transform="translate(108.012695 -16.40625) scale(0.7)"/>
     </g>
    </g>
   </g>
   <g id="text_14">
    <g clip-path="url(#p7445426236)">
     <!-- ${q}_{12}$ -->
     <g transform="translate(40.095423 612.580606) scale(0.1625 -0.1625)">
      <use xlink:href="#DejaVuSans-Oblique-71"/>
      <use xlink:href="#DejaVuSans-31" transform="translate(63.476562 -16.40625) scale(0.7)"/>
      <use xlink:href="#DejaVuSans-32" transform="translate(108.012695 -16.40625) scale(0.7)"/>
     </g>
    </g>
   </g>
   <g id="text_15">
    <g clip-path="url(#p7445426236)">
     <!-- ${q}_{13}$ -->
     <g transform="translate(40.095423 658.934606) scale(0.1625 -0.1625)">
      <use xlink:href="#DejaVuSans-Oblique-71"/>
      <use xlink:href="#DejaVuSans-31" transform="translate(63.476562 -16.40625) scale(0.7)"/>
      <use xlink:href="#DejaVuSans-33" transform="translate(108.012695 -16.40625) scale(0.7)"/>
     </g>
    </g>
   </g>
   <g id="text_16">
    <g clip-path="url(#p7445426236)">
     <!-- ${q}_{14}$ -->
     <g transform="translate(40.095423 705.288605) scale(0.1625 -0.1625)">
      <use xlink:href="#DejaVuSans-Oblique-71"/>
      <use xlink:href="#DejaVuSans-31" transform="translate(63.476562 -16.40625) scale(0.7)"/>
      <use xlink:href="#DejaVuSans-34" transform="translate(108.012695 -16.40625) scale(0.7)"/>
     </g>
    </g>
   </g>
   <g id="text_17">
    <g clip-path="url(#p7445426236)">
     <!-- ${q}_{15}$ -->
     <g transform="translate(40.095423 751.642604) scale(0.1625 -0.1625)">
      <use xlink:href="#DejaVuSans-Oblique-71"/>
      <use xlink:href="#DejaVuSans-31" transform="translate(63.476562 -16.40625) scale(0.7)"/>
      <use xlink:href="#DejaVuSans-35" transform="translate(108.012695 -16.40625) scale(0.7)"/>
     </g>
    </g>
   </g>
   <g id="text_18">
    <g clip-path="url(#p7445426236)">
     <!-- ${q}_{16}$ -->
     <g transform="translate(40.095423 797.996604) scale(0.1625 -0.1625)">
      <use xlink:href="#DejaVuSans-Oblique-71"/>
      <use xlink:href="#DejaVuSans-31" transform="translate(63.476562 -16.40625) scale(0.7)"/>
      <use xlink:href="#DejaVuSans-36" transform="translate(108.012695 -16.40625) scale(0.7)"/>
     </g>
    </g>
   </g>
   <g id="text_19">
    <g clip-path="url(#p7445426236)">
     <!-- ${q}_{17}$ -->
     <g transform="translate(40.095423 844.350603) scale(0.1625 -0.1625)">
      <use xlink:href="#DejaVuSans-Oblique-71"/>
      <use xlink:href="#DejaVuSans-31" transform="translate(63.476562 -16.40625) scale(0.7)"/>
      <use xlink:href="#DejaVuSans-37" transform="translate(108.012695 -16.40625) scale(0.7)"/>
     </g>
    </g>
   </g>
   <g id="text_20">
    <g clip-path="url(#p7445426236)">
     <!-- ${q}_{18}$ -->
     <g transform="translate(40.095423 890.704602) scale(0.1625 -0.1625)">
      <use xlink:href="#DejaVuSans-Oblique-71"/>
      <use xlink:href="#DejaVuSans-31" transform="translate(63.476562 -16.40625) scale(0.7)"/>
      <use xlink:href="#DejaVuSans-38" transform="translate(108.012695 -16.40625) scale(0.7)"/>
     </g>
    </g>
   </g>
   <g id="text_21">
    <g clip-path="url(#p7445426236)">
     <!-- ${q}_{19}$ -->
     <g transform="translate(40.095423 937.058602) scale(0.1625 -0.1625)">
      <use xlink:href="#DejaVuSans-Oblique-71"/>
      <use xlink:href="#DejaVuSans-31" transform="translate(63.476562 -16.40625) scale(0.7)"/>
      <use xlink:href="#DejaVuSans-39" transform="translate(108.012695 -16.40625) scale(0.7)"/>
     </g>
    </g>
   </g>
   <g id="text_22">
    <g clip-path="url(#p7445426236)">
     <!-- $\pi$/2, 3$\pi$/2 -->
     <g transform="translate(82.347382 433.960162) scale(0.08 -0.08)">
      <defs>
       <path id="DejaVuSans-2c" d="M 750 794 
L 1409 794 
L 1409 256 
L 897 -744 
L 494 -744 
L 750 256 
L 750 794 
z
" transform="scale(0.015625)"/>
      </defs>
      <use xlink:href="#DejaVuSans-Oblique-3c0" transform="translate(0 0.78125)"/>
      <use xlink:href="#DejaVuSans-2f" transform="translate(60.205078 0.78125)"/>
      <use xlink:href="#DejaVuSans-32" transform="translate(90.271484 0.78125)"/>
      <use xlink:href="#DejaVuSans-2c" transform="translate(153.894531 0.78125)"/>
      <use xlink:href="#DejaVuSans-20" transform="translate(185.681641 0.78125)"/>
      <use xlink:href="#DejaVuSans-33" transform="translate(217.46875 0.78125)"/>
      <use xlink:href="#DejaVuSans-Oblique-3c0" transform="translate(281.091797 0.78125)"/>
      <use xlink:href="#DejaVuSans-2f" transform="translate(341.296875 0.78125)"/>
      <use xlink:href="#DejaVuSans-32" transform="translate(371.363281 0.78125)"/>
     </g>
    </g>
   </g>
   <g id="text_23">
    <g clip-path="url(#p7445426236)">
     <!-- R -->
     <g transform="translate(95.230898 421.781305) scale(0.13 -0.13)">
      <defs>
       <path id="DejaVuSans-52" d="M 2841 2188 
Q 3044 2119 3236 1894 
Q 3428 1669 3622 1275 
L 4263 0 
L 3584 0 
L 2988 1197 
Q 2756 1666 2539 1819 
Q 2322 1972 1947 1972 
L 1259 1972 
L 1259 0 
L 628 0 
L 628 4666 
L 2053 4666 
Q 2853 4666 3247 4331 
Q 3641 3997 3641 3322 
Q 3641 2881 3436 2590 
Q 3231 2300 2841 2188 
z
M 1259 4147 
L 1259 2491 
L 2053 2491 
Q 2509 2491 2742 2702 
Q 2975 2913 2975 3322 
Q 2975 3731 2742 3939 
Q 2509 4147 2053 4147 
L 1259 4147 
z
" transform="scale(0.015625)"/>
      </defs>
      <use xlink:href="#DejaVuSans-52"/>
     </g>
    </g>
   </g>
   <g id="text_24">
    <g clip-path="url(#p7445426236)">
     <!-- $\pi$/2, 3$\pi$/2 -->
     <g transform="translate(82.347382 665.730159) scale(0.08 -0.08)">
      <use xlink:href="#DejaVuSans-Oblique-3c0" transform="translate(0 0.78125)"/>
      <use xlink:href="#DejaVuSans-2f" transform="translate(60.205078 0.78125)"/>
      <use xlink:href="#DejaVuSans-32" transform="translate(90.271484 0.78125)"/>
      <use xlink:href="#DejaVuSans-2c" transform="translate(153.894531 0.78125)"/>
      <use xlink:href="#DejaVuSans-20" transform="translate(185.681641 0.78125)"/>
      <use xlink:href="#DejaVuSans-33" transform="translate(217.46875 0.78125)"/>
      <use xlink:href="#DejaVuSans-Oblique-3c0" transform="translate(281.091797 0.78125)"/>
      <use xlink:href="#DejaVuSans-2f" transform="translate(341.296875 0.78125)"/>
      <use xlink:href="#DejaVuSans-32" transform="translate(371.363281 0.78125)"/>
     </g>
    </g>
   </g>
   <g id="text_25">
    <g clip-path="url(#p7445426236)">
     <!-- R -->
     <g transform="translate(95.230898 653.551302) scale(0.13 -0.13)">
      <use xlink:href="#DejaVuSans-52"/>
     </g>
    </g>
   </g>
   <g id="text_26">
    <g clip-path="url(#p7445426236)">
     <!-- $\pi$/2, 0 -->
     <g transform="translate(88.467382 712.084158) scale(0.08 -0.08)">
      <use xlink:href="#DejaVuSans-Oblique-3c0" transform="translate(0 0.78125)"/>
      <use xlink:href="#DejaVuSans-2f" transform="translate(60.205078 0.78125)"/>
      <use xlink:href="#DejaVuSans-32" transform="translate(90.271484 0.78125)"/>
      <use xlink:href="#DejaVuSans-2c" transform="translate(153.894531 0.78125)"/>
      <use xlink:href="#DejaVuSans-20" transform="translate(185.681641 0.78125)"/>
      <use xlink:href="#DejaVuSans-30" transform="translate(217.46875 0.78125)"/>
     </g>
    </g>
   </g>
   <g id="text_27">
    <g clip-path="url(#p7445426236)">
     <!-- R -->
     <g transform="translate(95.230898 699.905301) scale(0.13 -0.13)">
      <use xlink:href="#DejaVuSans-52"/>
     </g>
    </g>
   </g>
   <g id="text_28">
    <g clip-path="url(#p7445426236)">
     <!-- 0.931, 0 -->
     <g transform="translate(175.916631 480.314161) scale(0.08 -0.08)">
      <defs>
       <path id="DejaVuSans-2e" d="M 684 794 
L 1344 794 
L 1344 0 
L 684 0 
L 684 794 
z
" transform="scale(0.015625)"/>
      </defs>
      <use xlink:href="#DejaVuSans-30"/>
      <use xlink:href="#DejaVuSans-2e" x="63.623047"/>
      <use xlink:href="#DejaVuSans-39" x="95.410156"/>
      <use xlink:href="#DejaVuSans-33" x="159.033203"/>
      <use xlink:href="#DejaVuSans-31" x="222.65625"/>
      <use xlink:href="#DejaVuSans-2c" x="286.279297"/>
      <use xlink:href="#DejaVuSans-20" x="318.066406"/>
      <use xlink:href="#DejaVuSans-30" x="349.853516"/>
     </g>
    </g>
   </g>
   <g id="text_29">
    <g clip-path="url(#p7445426236)">
     <!-- R -->
     <g transform="translate(187.938897 468.135304) scale(0.13 -0.13)">
      <use xlink:href="#DejaVuSans-52"/>
     </g>
    </g>
   </g>
   <g id="text_30">
    <g clip-path="url(#p7445426236)">
     <!-- 0.16, 0 -->
     <g transform="translate(178.461631 851.146156) scale(0.08 -0.08)">
      <use xlink:href="#DejaVuSans-30"/>
      <use xlink:href="#DejaVuSans-2e" x="63.623047"/>
      <use xlink:href="#DejaVuSans-31" x="95.410156"/>
      <use xlink:href="#DejaVuSans-36" x="159.033203"/>
      <use xlink:href="#DejaVuSans-2c" x="222.65625"/>
      <use xlink:href="#DejaVuSans-20" x="254.443359"/>
      <use xlink:href="#DejaVuSans-30" x="286.230469"/>
     </g>
    </g>
   </g>
   <g id="text_31">
    <g clip-path="url(#p7445426236)">
     <!-- R -->
     <g transform="translate(187.938897 838.967299) scale(0.13 -0.13)">
      <use xlink:href="#DejaVuSans-52"/>
     </g>
    </g>
   </g>
   <g id="text_32">
    <g clip-path="url(#p7445426236)">
     <!-- $\pi$/2, 3$\pi$/2 -->
     <g transform="translate(267.76338 480.314161) scale(0.08 -0.08)">
      <use xlink:href="#DejaVuSans-Oblique-3c0" transform="translate(0 0.78125)"/>
      <use xlink:href="#DejaVuSans-2f" transform="translate(60.205078 0.78125)"/>
      <use xlink:href="#DejaVuSans-32" transform="translate(90.271484 0.78125)"/>
      <use xlink:href="#DejaVuSans-2c" transform="translate(153.894531 0.78125)"/>
      <use xlink:href="#DejaVuSans-20" transform="translate(185.681641 0.78125)"/>
      <use xlink:href="#DejaVuSans-33" transform="translate(217.46875 0.78125)"/>
      <use xlink:href="#DejaVuSans-Oblique-3c0" transform="translate(281.091797 0.78125)"/>
      <use xlink:href="#DejaVuSans-2f" transform="translate(341.296875 0.78125)"/>
      <use xlink:href="#DejaVuSans-32" transform="translate(371.363281 0.78125)"/>
     </g>
    </g>
   </g>
   <g id="text_33">
    <g clip-path="url(#p7445426236)">
     <!-- R -->
     <g transform="translate(280.646895 468.135304) scale(0.13 -0.13)">
      <use xlink:href="#DejaVuSans-52"/>
     </g>
    </g>
   </g>
   <g id="text_34">
    <g clip-path="url(#p7445426236)">
     <!-- $\pi$/2, 5$\pi$/2 -->
     <g transform="translate(267.76338 665.730159) scale(0.08 -0.08)">
      <use xlink:href="#DejaVuSans-Oblique-3c0" transform="translate(0 0.78125)"/>
      <use xlink:href="#DejaVuSans-2f" transform="translate(60.205078 0.78125)"/>
      <use xlink:href="#DejaVuSans-32" transform="translate(90.271484 0.78125)"/>
      <use xlink:href="#DejaVuSans-2c" transform="translate(153.894531 0.78125)"/>
      <use xlink:href="#DejaVuSans-20" transform="translate(185.681641 0.78125)"/>
      <use xlink:href="#DejaVuSans-35" transform="translate(217.46875 0.78125)"/>
      <use xlink:href="#DejaVuSans-Oblique-3c0" transform="translate(281.091797 0.78125)"/>
      <use xlink:href="#DejaVuSans-2f" transform="translate(341.296875 0.78125)"/>
      <use xlink:href="#DejaVuSans-32" transform="translate(371.363281 0.78125)"/>
     </g>
    </g>
   </g>
   <g id="text_35">
    <g clip-path="url(#p7445426236)">
     <!-- R -->
     <g transform="translate(280.646895 653.551302) scale(0.13 -0.13)">
      <use xlink:href="#DejaVuSans-52"/>
     </g>
    </g>
   </g>
   <g id="text_36">
    <g clip-path="url(#p7445426236)">
     <!-- $\pi$/2, 3$\pi$/2 -->
     <g transform="translate(267.76338 851.146156) scale(0.08 -0.08)">
      <use xlink:href="#DejaVuSans-Oblique-3c0" transform="translate(0 0.78125)"/>
      <use xlink:href="#DejaVuSans-2f" transform="translate(60.205078 0.78125)"/>
      <use xlink:href="#DejaVuSans-32" transform="translate(90.271484 0.78125)"/>
      <use xlink:href="#DejaVuSans-2c" transform="translate(153.894531 0.78125)"/>
      <use xlink:href="#DejaVuSans-20" transform="translate(185.681641 0.78125)"/>
      <use xlink:href="#DejaVuSans-33" transform="translate(217.46875 0.78125)"/>
      <use xlink:href="#DejaVuSans-Oblique-3c0" transform="translate(281.091797 0.78125)"/>
      <use xlink:href="#DejaVuSans-2f" transform="translate(341.296875 0.78125)"/>
      <use xlink:href="#DejaVuSans-32" transform="translate(371.363281 0.78125)"/>
     </g>
    </g>
   </g>
   <g id="text_37">
    <g clip-path="url(#p7445426236)">
     <!-- R -->
     <g transform="translate(280.646895 838.967299) scale(0.13 -0.13)">
      <use xlink:href="#DejaVuSans-52"/>
     </g>
    </g>
   </g>
   <g id="text_38">
    <g clip-path="url(#p7445426236)">
     <!-- $\pi$/2, 5$\pi$/2 -->
     <g transform="translate(360.471378 665.730159) scale(0.08 -0.08)">
      <use xlink:href="#DejaVuSans-Oblique-3c0" transform="translate(0 0.78125)"/>
      <use xlink:href="#DejaVuSans-2f" transform="translate(60.205078 0.78125)"/>
      <use xlink:href="#DejaVuSans-32" transform="translate(90.271484 0.78125)"/>
      <use xlink:href="#DejaVuSans-2c" transform="translate(153.894531 0.78125)"/>
      <use xlink:href="#DejaVuSans-20" transform="translate(185.681641 0.78125)"/>
      <use xlink:href="#DejaVuSans-35" transform="translate(217.46875 0.78125)"/>
      <use xlink:href="#DejaVuSans-Oblique-3c0" transform="translate(281.091797 0.78125)"/>
      <use xlink:href="#DejaVuSans-2f" transform="translate(341.296875 0.78125)"/>
      <use xlink:href="#DejaVuSans-32" transform="translate(371.363281 0.78125)"/>
     </g>
    </g>
   </g>
   <g id="text_39">
    <g clip-path="url(#p7445426236)">
     <!-- R -->
     <g transform="translate(373.354894 653.551302) scale(0.13 -0.13)">
      <use xlink:href="#DejaVuSans-52"/>
     </g>
    </g>
   </g>
   <g id="text_40">
    <g clip-path="url(#p7445426236)">
     <!-- $\pi$/2, $-$$\pi$/2 -->
     <g transform="translate(359.631378 712.084158) scale(0.08 -0.08)">
      <defs>
       <path id="DejaVuSans-2212" d="M 678 2272 
L 4684 2272 
L 4684 1741 
L 678 1741 
L 678 2272 
z
" transform="scale(0.015625)"/>
      </defs>
      <use xlink:href="#DejaVuSans-Oblique-3c0" transform="translate(0 0.78125)"/>
      <use xlink:href="#DejaVuSans-2f" transform="translate(60.205078 0.78125)"/>
      <use xlink:href="#DejaVuSans-32" transform="translate(90.271484 0.78125)"/>
      <use xlink:href="#DejaVuSans-2c" transform="translate(153.894531 0.78125)"/>
      <use xlink:href="#DejaVuSans-20" transform="translate(185.681641 0.78125)"/>
      <use xlink:href="#DejaVuSans-2212" transform="translate(217.46875 0.78125)"/>
      <use xlink:href="#DejaVuSans-Oblique-3c0" transform="translate(301.257812 0.78125)"/>
      <use xlink:href="#DejaVuSans-2f" transform="translate(361.462891 0.78125)"/>
      <use xlink:href="#DejaVuSans-32" transform="translate(391.529297 0.78125)"/>
     </g>
    </g>
   </g>
   <g id="text_41">
    <g clip-path="url(#p7445426236)">
     <!-- R -->
     <g transform="translate(373.354894 699.905301) scale(0.13 -0.13)">
      <use xlink:href="#DejaVuSans-52"/>
     </g>
    </g>
   </g>
   <g id="text_42">
    <g clip-path="url(#p7445426236)">
     <!-- $\pi$/2, 7$\pi$/2 -->
     <g transform="translate(453.179377 665.730159) scale(0.08 -0.08)">
      <use xlink:href="#DejaVuSans-Oblique-3c0" transform="translate(0 0.78125)"/>
      <use xlink:href="#DejaVuSans-2f" transform="translate(60.205078 0.78125)"/>
      <use xlink:href="#DejaVuSans-32" transform="translate(90.271484 0.78125)"/>
      <use xlink:href="#DejaVuSans-2c" transform="translate(153.894531 0.78125)"/>
      <use xlink:href="#DejaVuSans-20" transform="translate(185.681641 0.78125)"/>
      <use xlink:href="#DejaVuSans-37" transform="translate(217.46875 0.78125)"/>
      <use xlink:href="#DejaVuSans-Oblique-3c0" transform="translate(281.091797 0.78125)"/>
      <use xlink:href="#DejaVuSans-2f" transform="translate(341.296875 0.78125)"/>
      <use xlink:href="#DejaVuSans-32" transform="translate(371.363281 0.78125)"/>
     </g>
    </g>
   </g>
   <g id="text_43">
    <g clip-path="url(#p7445426236)">
     <!-- R -->
     <g transform="translate(466.062893 653.551302) scale(0.13 -0.13)">
      <use xlink:href="#DejaVuSans-52"/>
     </g>
    </g>
   </g>
   <g id="text_44">
    <g clip-path="url(#p7445426236)">
     <!-- $\pi$/2, 3$\pi$/2 -->
     <g transform="translate(453.179377 712.084158) scale(0.08 -0.08)">
      <use xlink:href="#DejaVuSans-Oblique-3c0" transform="translate(0 0.78125)"/>
      <use xlink:href="#DejaVuSans-2f" transform="translate(60.205078 0.78125)"/>
      <use xlink:href="#DejaVuSans-32" transform="translate(90.271484 0.78125)"/>
      <use xlink:href="#DejaVuSans-2c" transform="translate(153.894531 0.78125)"/>
      <use xlink:href="#DejaVuSans-20" transform="translate(185.681641 0.78125)"/>
      <use xlink:href="#DejaVuSans-33" transform="translate(217.46875 0.78125)"/>
      <use xlink:href="#DejaVuSans-Oblique-3c0" transform="translate(281.091797 0.78125)"/>
      <use xlink:href="#DejaVuSans-2f" transform="translate(341.296875 0.78125)"/>
      <use xlink:href="#DejaVuSans-32" transform="translate(371.363281 0.78125)"/>
     </g>
    </g>
   </g>
   <g id="text_45">
    <g clip-path="url(#p7445426236)">
     <!-- R -->
     <g transform="translate(466.062893 699.905301) scale(0.13 -0.13)">
      <use xlink:href="#DejaVuSans-52"/>
     </g>
    </g>
   </g>
   <g id="text_46">
    <g clip-path="url(#p7445426236)">
     <!-- $\pi$/2, 4$\pi$ -->
     <g transform="translate(549.607376 665.730159) scale(0.08 -0.08)">
      <use xlink:href="#DejaVuSans-Oblique-3c0" transform="translate(0 0.78125)"/>
      <use xlink:href="#DejaVuSans-2f" transform="translate(60.205078 0.78125)"/>
      <use xlink:href="#DejaVuSans-32" transform="translate(90.271484 0.78125)"/>
      <use xlink:href="#DejaVuSans-2c" transform="translate(153.894531 0.78125)"/>
      <use xlink:href="#DejaVuSans-20" transform="translate(185.681641 0.78125)"/>
      <use xlink:href="#DejaVuSans-34" transform="translate(217.46875 0.78125)"/>
      <use xlink:href="#DejaVuSans-Oblique-3c0" transform="translate(281.091797 0.78125)"/>
     </g>
    </g>
   </g>
   <g id="text_47">
    <g clip-path="url(#p7445426236)">
     <!-- R -->
     <g transform="translate(558.770892 653.551302) scale(0.13 -0.13)">
      <use xlink:href="#DejaVuSans-52"/>
     </g>
    </g>
   </g>
   <g id="text_48">
    <g clip-path="url(#p7445426236)">
     <!-- $\pi$/2, 5$\pi$/2 -->
     <g transform="translate(545.887376 712.084158) scale(0.08 -0.08)">
      <use xlink:href="#DejaVuSans-Oblique-3c0" transform="translate(0 0.78125)"/>
      <use xlink:href="#DejaVuSans-2f" transform="translate(60.205078 0.78125)"/>
      <use xlink:href="#DejaVuSans-32" transform="translate(90.271484 0.78125)"/>
      <use xlink:href="#DejaVuSans-2c" transform="translate(153.894531 0.78125)"/>
      <use xlink:href="#DejaVuSans-20" transform="translate(185.681641 0.78125)"/>
      <use xlink:href="#DejaVuSans-35" transform="translate(217.46875 0.78125)"/>
      <use xlink:href="#DejaVuSans-Oblique-3c0" transform="translate(281.091797 0.78125)"/>
      <use xlink:href="#DejaVuSans-2f" transform="translate(341.296875 0.78125)"/>
      <use xlink:href="#DejaVuSans-32" transform="translate(371.363281 0.78125)"/>
     </g>
    </g>
   </g>
   <g id="text_49">
    <g clip-path="url(#p7445426236)">
     <!-- R -->
     <g transform="translate(558.770892 699.905301) scale(0.13 -0.13)">
      <use xlink:href="#DejaVuSans-52"/>
     </g>
    </g>
   </g>
   <g id="text_50">
    <g clip-path="url(#p7445426236)">
     <!-- 0.0899, 2$\pi$ -->
     <g transform="translate(704.006374 712.084158) scale(0.08 -0.08)">
      <use xlink:href="#DejaVuSans-30" transform="translate(0 0.78125)"/>
      <use xlink:href="#DejaVuSans-2e" transform="translate(63.623047 0.78125)"/>
      <use xlink:href="#DejaVuSans-30" transform="translate(95.410156 0.78125)"/>
      <use xlink:href="#DejaVuSans-38" transform="translate(159.033203 0.78125)"/>
      <use xlink:href="#DejaVuSans-39" transform="translate(222.65625 0.78125)"/>
      <use xlink:href="#DejaVuSans-39" transform="translate(286.279297 0.78125)"/>
      <use xlink:href="#DejaVuSans-2c" transform="translate(349.902344 0.78125)"/>
      <use xlink:href="#DejaVuSans-20" transform="translate(381.689453 0.78125)"/>
      <use xlink:href="#DejaVuSans-32" transform="translate(413.476562 0.78125)"/>
      <use xlink:href="#DejaVuSans-Oblique-3c0" transform="translate(477.099609 0.78125)"/>
     </g>
    </g>
   </g>
   <g id="text_51">
    <g clip-path="url(#p7445426236)">
     <!-- R -->
     <g transform="translate(721.009889 699.905301) scale(0.13 -0.13)">
      <use xlink:href="#DejaVuSans-52"/>
     </g>
    </g>
   </g>
   <g id="text_52">
    <g clip-path="url(#p7445426236)">
     <!-- 0.824, 7$\pi$/2 -->
     <g transform="translate(702.926374 665.730159) scale(0.08 -0.08)">
      <use xlink:href="#DejaVuSans-30" transform="translate(0 0.78125)"/>
      <use xlink:href="#DejaVuSans-2e" transform="translate(63.623047 0.78125)"/>
      <use xlink:href="#DejaVuSans-38" transform="translate(92.785156 0.78125)"/>
      <use xlink:href="#DejaVuSans-32" transform="translate(156.408203 0.78125)"/>
      <use xlink:href="#DejaVuSans-34" transform="translate(220.03125 0.78125)"/>
      <use xlink:href="#DejaVuSans-2c" transform="translate(283.654297 0.78125)"/>
      <use xlink:href="#DejaVuSans-20" transform="translate(315.441406 0.78125)"/>
      <use xlink:href="#DejaVuSans-37" transform="translate(347.228516 0.78125)"/>
      <use xlink:href="#DejaVuSans-Oblique-3c0" transform="translate(410.851562 0.78125)"/>
      <use xlink:href="#DejaVuSans-2f" transform="translate(471.056641 0.78125)"/>
      <use xlink:href="#DejaVuSans-32" transform="translate(501.123047 0.78125)"/>
     </g>
    </g>
   </g>
   <g id="text_53">
    <g clip-path="url(#p7445426236)">
     <!-- R -->
     <g transform="translate(721.009889 653.551302) scale(0.13 -0.13)">
      <use xlink:href="#DejaVuSans-52"/>
     </g>
    </g>
   </g>
   <g id="text_54">
    <g clip-path="url(#p7445426236)">
     <!-- $\pi$/2, 5$\pi$/2 -->
     <g transform="translate(824.011372 480.314161) scale(0.08 -0.08)">
      <use xlink:href="#DejaVuSans-Oblique-3c0" transform="translate(0 0.78125)"/>
      <use xlink:href="#DejaVuSans-2f" transform="translate(60.205078 0.78125)"/>
      <use xlink:href="#DejaVuSans-32" transform="translate(90.271484 0.78125)"/>
      <use xlink:href="#DejaVuSans-2c" transform="translate(153.894531 0.78125)"/>
      <use xlink:href="#DejaVuSans-20" transform="translate(185.681641 0.78125)"/>
      <use xlink:href="#DejaVuSans-35" transform="translate(217.46875 0.78125)"/>
      <use xlink:href="#DejaVuSans-Oblique-3c0" transform="translate(281.091797 0.78125)"/>
      <use xlink:href="#DejaVuSans-2f" transform="translate(341.296875 0.78125)"/>
      <use xlink:href="#DejaVuSans-32" transform="translate(371.363281 0.78125)"/>
     </g>
    </g>
   </g>
   <g id="text_55">
    <g clip-path="url(#p7445426236)">
     <!-- R -->
     <g transform="translate(836.894888 468.135304) scale(0.13 -0.13)">
      <use xlink:href="#DejaVuSans-52"/>
     </g>
    </g>
   </g>
   <g id="text_56">
    <g clip-path="url(#p7445426236)">
     <!-- 0, 10.6 -->
     <g transform="translate(873.771622 712.084158) scale(0.08 -0.08)">
      <use xlink:href="#DejaVuSans-30"/>
      <use xlink:href="#DejaVuSans-2c" x="63.623047"/>
      <use xlink:href="#DejaVuSans-20" x="95.410156"/>
      <use xlink:href="#DejaVuSans-31" x="127.197266"/>
      <use xlink:href="#DejaVuSans-30" x="190.820312"/>
      <use xlink:href="#DejaVuSans-2e" x="254.443359"/>
      <use xlink:href="#DejaVuSans-36" x="286.230469"/>
     </g>
    </g>
   </g>
   <g id="text_57">
    <g clip-path="url(#p7445426236)">
     <!-- R -->
     <g transform="translate(883.248887 699.905301) scale(0.13 -0.13)">
      <use xlink:href="#DejaVuSans-52"/>
     </g>
    </g>
   </g>
   <g id="text_58">
    <g clip-path="url(#p7445426236)">
     <!-- $\pi$/2, 5$\pi$/2 -->
     <g transform="translate(870.365372 851.146156) scale(0.08 -0.08)">
      <use xlink:href="#DejaVuSans-Oblique-3c0" transform="translate(0 0.78125)"/>
      <use xlink:href="#DejaVuSans-2f" transform="translate(60.205078 0.78125)"/>
      <use xlink:href="#DejaVuSans-32" transform="translate(90.271484 0.78125)"/>
      <use xlink:href="#DejaVuSans-2c" transform="translate(153.894531 0.78125)"/>
      <use xlink:href="#DejaVuSans-20" transform="translate(185.681641 0.78125)"/>
      <use xlink:href="#DejaVuSans-35" transform="translate(217.46875 0.78125)"/>
      <use xlink:href="#DejaVuSans-Oblique-3c0" transform="translate(281.091797 0.78125)"/>
      <use xlink:href="#DejaVuSans-2f" transform="translate(341.296875 0.78125)"/>
      <use xlink:href="#DejaVuSans-32" transform="translate(371.363281 0.78125)"/>
     </g>
    </g>
   </g>
   <g id="text_59">
    <g clip-path="url(#p7445426236)">
     <!-- R -->
     <g transform="translate(883.248887 838.967299) scale(0.13 -0.13)">
      <use xlink:href="#DejaVuSans-52"/>
     </g>
    </g>
   </g>
   <g id="text_60">
    <g clip-path="url(#p7445426236)">
     <!-- 0.243, 7$\pi$/2 -->
     <g transform="translate(934.816371 665.730159) scale(0.08 -0.08)">
      <use xlink:href="#DejaVuSans-30" transform="translate(0 0.78125)"/>
      <use xlink:href="#DejaVuSans-2e" transform="translate(63.623047 0.78125)"/>
      <use xlink:href="#DejaVuSans-32" transform="translate(89.910156 0.78125)"/>
      <use xlink:href="#DejaVuSans-34" transform="translate(153.533203 0.78125)"/>
      <use xlink:href="#DejaVuSans-33" transform="translate(217.15625 0.78125)"/>
      <use xlink:href="#DejaVuSans-2c" transform="translate(280.779297 0.78125)"/>
      <use xlink:href="#DejaVuSans-20" transform="translate(312.566406 0.78125)"/>
      <use xlink:href="#DejaVuSans-37" transform="translate(344.353516 0.78125)"/>
      <use xlink:href="#DejaVuSans-Oblique-3c0" transform="translate(407.976562 0.78125)"/>
      <use xlink:href="#DejaVuSans-2f" transform="translate(468.181641 0.78125)"/>
      <use xlink:href="#DejaVuSans-32" transform="translate(498.248047 0.78125)"/>
     </g>
    </g>
   </g>
   <g id="text_61">
    <g clip-path="url(#p7445426236)">
     <!-- R -->
     <g transform="translate(952.779886 653.551302) scale(0.13 -0.13)">
      <use xlink:href="#DejaVuSans-52"/>
     </g>
    </g>
   </g>
   <g id="text_62">
    <g clip-path="url(#p7445426236)">
     <!-- $\pi$/2, 5$\pi$/2 -->
     <g transform="translate(1055.781369 433.960162) scale(0.08 -0.08)">
      <use xlink:href="#DejaVuSans-Oblique-3c0" transform="translate(0 0.78125)"/>
      <use xlink:href="#DejaVuSans-2f" transform="translate(60.205078 0.78125)"/>
      <use xlink:href="#DejaVuSans-32" transform="translate(90.271484 0.78125)"/>
      <use xlink:href="#DejaVuSans-2c" transform="translate(153.894531 0.78125)"/>
      <use xlink:href="#DejaVuSans-20" transform="translate(185.681641 0.78125)"/>
      <use xlink:href="#DejaVuSans-35" transform="translate(217.46875 0.78125)"/>
      <use xlink:href="#DejaVuSans-Oblique-3c0" transform="translate(281.091797 0.78125)"/>
      <use xlink:href="#DejaVuSans-2f" transform="translate(341.296875 0.78125)"/>
      <use xlink:href="#DejaVuSans-32" transform="translate(371.363281 0.78125)"/>
     </g>
    </g>
   </g>
   <g id="text_63">
    <g clip-path="url(#p7445426236)">
     <!-- R -->
     <g transform="translate(1068.664885 421.781305) scale(0.13 -0.13)">
      <use xlink:href="#DejaVuSans-52"/>
     </g>
    </g>
   </g>
   <g id="text_64">
    <g clip-path="url(#p7445426236)">
     <!-- 0, 15.7 -->
     <g transform="translate(1059.187619 665.730159) scale(0.08 -0.08)">
      <use xlink:href="#DejaVuSans-30"/>
      <use xlink:href="#DejaVuSans-2c" x="63.623047"/>
      <use xlink:href="#DejaVuSans-20" x="95.410156"/>
      <use xlink:href="#DejaVuSans-31" x="127.197266"/>
      <use xlink:href="#DejaVuSans-35" x="190.820312"/>
      <use xlink:href="#DejaVuSans-2e" x="254.443359"/>
      <use xlink:href="#DejaVuSans-37" x="286.230469"/>
     </g>
    </g>
   </g>
   <g id="text_65">
    <g clip-path="url(#p7445426236)">
     <!-- R -->
     <g transform="translate(1068.664885 653.551302) scale(0.13 -0.13)">
      <use xlink:href="#DejaVuSans-52"/>
     </g>
    </g>
   </g>
  </g>
 </g>
 <defs>
  <clipPath id="p7445426236">
   <rect x="7.2" y="14.798437" width="1096.575009" height="945.621587"/>
  </clipPath>
 </defs>
</svg>
